<svg width="100" height="72" viewBox="0 0 100 72" fill="none" xmlns="http://www.w3.org/2000/svg">
<g clip-path="url(#clip0_1172_157)">
<path fill-rule="evenodd" clip-rule="evenodd" d="M0 10.0439C0 7.46244 1.05357 4.98673 2.92893 3.16137C4.8043 1.33602 7.34784 0.310547 10 0.310547H90C92.6522 0.310547 95.1957 1.33602 97.0711 3.16137C98.9464 4.98673 100 7.46244 100 10.0439V61.955C100 64.5364 98.9464 67.0122 97.0711 68.8375C95.1957 70.6629 92.6522 71.6883 90 71.6883H10C7.34784 71.6883 4.8043 70.6629 2.92893 68.8375C1.05357 67.0122 0 64.5364 0 61.955L0 10.0439ZM20 26.2661C20 22.8242 21.4048 19.5232 23.9052 17.0894C26.4057 14.6556 29.7971 13.2883 33.3333 13.2883C36.8696 13.2883 40.2609 14.6556 42.7614 17.0894C45.2619 19.5232 46.6667 22.8242 46.6667 26.2661C46.6667 29.708 45.2619 33.009 42.7614 35.4428C40.2609 37.8766 36.8696 39.2439 33.3333 39.2439C29.7971 39.2439 26.4057 37.8766 23.9052 35.4428C21.4048 33.009 20 29.708 20 26.2661ZM80 26.2661H60V19.7772H80V26.2661ZM80 45.7328H60V39.2439H80V45.7328ZM33.3333 45.7328C29.7095 45.7328 26.1572 46.715 23.0745 48.5693C19.9919 50.4237 17.5007 53.077 15.88 56.2318L13.68 60.5015C13.4251 60.9966 13.3046 61.547 13.3301 62.1003C13.3556 62.6536 13.5262 63.1913 13.8256 63.6622C14.125 64.1332 14.5432 64.5217 15.0405 64.7908C15.5379 65.0598 16.0977 65.2005 16.6667 65.1994H50C50.5684 65.1994 51.1274 65.0579 51.6238 64.7884C52.1202 64.5188 52.5376 64.1302 52.8362 63.6594C53.1348 63.1887 53.3048 62.6514 53.3299 62.0987C53.3551 61.5459 53.2347 60.9961 52.98 60.5015L50.7867 56.2318C49.166 53.077 46.6748 50.4237 43.5921 48.5693C40.5095 46.715 36.9572 45.7328 33.3333 45.7328Z" fill="#0066C2"/>
</g>
<defs>
<clipPath id="clip0_1172_157">
<rect width="100" height="72" fill="white"/>
</clipPath>
</defs>
</svg>
